<svg width="139" height="31" viewBox="0 0 139 31" fill="none" xmlns="http://www.w3.org/2000/svg">
<path d="M14.76 30.28C12.12 30.28 9.69333 29.6667 7.48 28.44C5.26667 27.1867 3.50667 25.4667 2.2 23.28C0.92 21.0667 0.28 18.5733 0.28 15.8C0.28 13.0267 0.92 10.5467 2.2 8.36C3.50667 6.14667 5.26667 4.42667 7.48 3.2C9.69333 1.97333 12.12 1.36 14.76 1.36C17.4267 1.36 19.8533 1.97333 22.04 3.2C24.2533 4.42667 26 6.14667 27.28 8.36C28.56 10.5467 29.2 13.0267 29.2 15.8C29.2 18.5733 28.56 21.0667 27.28 23.28C26 25.4667 24.2533 27.1867 22.04 28.44C19.8267 29.6667 17.4 30.28 14.76 30.28ZM14.76 23C16.76 23 18.3333 22.3467 19.48 21.04C20.6533 19.7333 21.24 17.9867 21.24 15.8C21.24 13.56 20.6533 11.8 19.48 10.52C18.3333 9.21333 16.76 8.56 14.76 8.56C12.7333 8.56 11.1467 9.21333 10 10.52C8.85333 11.8 8.28 13.56 8.28 15.8C8.28 18.0133 8.85333 19.7733 10 21.08C11.1467 22.36 12.7333 23 14.76 23ZM62.8444 30H55.0044L44.5644 14.24V30H36.7244V1.8H44.5644L55.0044 17.76V1.8H62.8444V30ZM105.764 1.8V18.16C105.764 19.68 106.11 20.8533 106.804 21.68C107.524 22.5067 108.604 22.92 110.044 22.92C111.484 22.92 112.564 22.5067 113.284 21.68C114.03 20.8267 114.404 19.6533 114.404 18.16V1.8H122.244V18.16C122.244 20.7467 121.697 22.96 120.604 24.8C119.51 26.6133 118.017 27.9867 116.124 28.92C114.257 29.8267 112.177 30.28 109.884 30.28C107.59 30.28 105.537 29.8267 103.724 28.92C101.937 27.9867 100.524 26.6133 99.4838 24.8C98.4704 22.9867 97.9638 20.7733 97.9638 18.16V1.8H105.764ZM134.36 30.32C132.974 30.32 131.854 29.9467 131 29.2C130.174 28.4267 129.76 27.4533 129.76 26.28C129.76 25.1067 130.174 24.1333 131 23.36C131.854 22.5867 132.974 22.2 134.36 22.2C135.72 22.2 136.814 22.5867 137.64 23.36C138.494 24.1333 138.92 25.1067 138.92 26.28C138.92 27.4267 138.494 28.3867 137.64 29.16C136.814 29.9333 135.72 30.32 134.36 30.32Z" fill="#161616"/>
<path d="M70.3903 23.72C72.977 21.6933 75.097 19.9467 76.7503 18.48C78.4036 17.0133 79.7903 15.5067 80.9103 13.96C82.0303 12.3867 82.5903 10.8933 82.5903 9.48C82.5903 8.62667 82.3903 7.96 81.9903 7.48C81.617 7 81.057 6.76 80.3103 6.76C79.537 6.76 78.937 7.09333 78.5103 7.76C78.0836 8.4 77.8836 9.34667 77.9103 10.6H70.3103C70.3903 8.22667 70.9103 6.26667 71.8703 4.72C72.8303 3.14667 74.0836 2 75.6303 1.28C77.177 0.533331 78.897 0.159998 80.7903 0.159998C84.0703 0.159998 86.5103 0.973331 88.1103 2.6C89.7103 4.22667 90.5103 6.33333 90.5103 8.92C90.5103 11.6933 89.577 14.2933 87.7103 16.72C85.8703 19.1467 83.5636 21.32 80.7903 23.24H90.7903V29.6H70.3903V23.72Z" fill="#272EDB"/>
</svg>
