<svg width="22" height="24" viewBox="0 0 22 24" fill="none" xmlns="http://www.w3.org/2000/svg">
<path d="M16.0314 22.875C16.0314 23.1734 15.9129 23.4595 15.7019 23.6705C15.4909 23.8815 15.2048 24 14.9064 24H4.30078C3.30656 23.9989 2.35338 23.6034 1.65036 22.9004C0.947345 22.1974 0.551898 21.2442 0.550781 20.25V3.75C0.551898 2.75578 0.947345 1.8026 1.65036 1.09958C2.35338 0.396563 3.30656 0.00111661 4.30078 0L14.9064 0C15.2048 0 15.4909 0.118526 15.7019 0.329505C15.9129 0.540483 16.0314 0.826631 16.0314 1.125C16.0314 1.42337 15.9129 1.70952 15.7019 1.9205C15.4909 2.13147 15.2048 2.25 14.9064 2.25H4.30078C3.90309 2.25043 3.52181 2.40861 3.2406 2.68982C2.95939 2.97103 2.80122 3.35231 2.80078 3.75V20.25C2.8012 20.6477 2.95937 21.029 3.24059 21.3102C3.5218 21.5914 3.90309 21.7496 4.30078 21.75H14.9064C15.2048 21.75 15.4909 21.8685 15.7019 22.0795C15.9129 22.2905 16.0314 22.5766 16.0314 22.875ZM21.1198 11.2045L15.7737 5.85834C15.6696 5.75196 15.5455 5.66728 15.4085 5.60919C15.2715 5.55111 15.1244 5.52078 14.9756 5.51995C14.8268 5.51913 14.6793 5.54783 14.5417 5.60439C14.4041 5.66096 14.279 5.74426 14.1738 5.84949C14.0686 5.95471 13.9853 6.07975 13.9288 6.21739C13.8722 6.35502 13.8435 6.5025 13.8444 6.6513C13.8452 6.80009 13.8756 6.94724 13.9337 7.08422C13.9918 7.22121 14.0765 7.3453 14.1829 7.44933L17.6084 10.875H8.75198C8.45362 10.875 8.16747 10.9935 7.95649 11.2045C7.74551 11.4155 7.62698 11.7016 7.62698 12C7.62698 12.2984 7.74551 12.5845 7.95649 12.7955C8.16747 13.0065 8.45362 13.125 8.75198 13.125H17.6083L14.1827 16.5506C14.0778 16.655 13.9944 16.779 13.9375 16.9156C13.8806 17.0523 13.8512 17.1988 13.851 17.3468C13.8508 17.4947 13.8798 17.6413 13.9364 17.7781C13.9929 17.9149 14.0759 18.0391 14.1805 18.1438C14.2852 18.2484 14.4094 18.3314 14.5462 18.3879C14.683 18.4445 14.8296 18.4735 14.9775 18.4733C15.1255 18.4731 15.272 18.4437 15.4087 18.3868C15.5453 18.3299 15.6693 18.2465 15.7737 18.1416L21.1198 12.7955C21.3308 12.5845 21.4493 12.2984 21.4493 12C21.4493 11.7017 21.3308 11.4155 21.1198 11.2045Z" fill="#5C5C5C"/>
</svg>
