    <svg fill="none" viewBox="0 0 24 24" xmlns="http://www.w3.org/2000/svg">
      <g clipPath="url(#a)">
        <path
          d="M21 6.243a3.974 3.974 0 00-1.172-2.829l-2.242-2.242A4.022 4.022 0 0014.758 0H6a3 3 0 00-3 3v21h18V6.243zm-2.586-1.415c.05.055.097.112.141.172H16V2.445c.06.044.117.09.172.141l2.242 2.242zM5 22V3a1 1 0 011-1h8v5h5v15H5zM8 9h8v2H8V9zm0 4h8v2H8v-2zm6.018 3.814l1.965.366c-.191 1.047-1.005 2.82-2.848 2.82-.723 0-1.425-.25-1.986-.706-.314-.223-.424-.294-.662-.294a2.18 2.18 0 00-.916.66l-1.5-1.317A3.749 3.749 0 0110.487 17a2.925 2.925 0 011.821.664c.224.211.52.331.827.336.623 0 .88-1.173.883-1.186z"
          fill="#161616"
        />
      </g>
      <defs>
        <clipPath id="a">
          <path d="M0 0h24v24H0z" fill="#fff" />
        </clipPath>
      </defs>
    </svg>