<svg width="16" height="16" viewBox="0 0 16 16" fill="none" xmlns="http://www.w3.org/2000/svg">
<path d="M15.0731 2.54102L14.743 4.35651C14.1457 4.38584 13.8014 4.5713 13.5203 4.72288C13.2535 4.86677 13.0427 4.98044 12.5794 4.98044C12.116 4.98044 11.9053 4.86677 11.6384 4.72288C11.3324 4.5578 10.9514 4.3524 10.2502 4.3524C9.54905 4.3524 9.16817 4.55783 8.86212 4.72288C8.59529 4.86677 8.38452 4.98044 7.92121 4.98044C7.4579 4.98044 7.24716 4.86677 6.98033 4.72288C6.67429 4.55783 6.29341 4.3524 5.59226 4.3524C4.8911 4.3524 4.51023 4.55783 4.20421 4.72288C3.93742 4.8668 3.72667 4.98044 3.26339 4.98044C2.80008 4.98044 2.58934 4.86677 2.32252 4.72288C2.06747 4.58534 1.76023 4.41982 1.25911 4.36848L0.926872 2.54102L0 2.70955L1.95445 13.4591H14.0455L16 2.70958L15.0731 2.54102ZM13.2593 12.517H2.74067L1.43895 5.35743C1.60095 5.40438 1.72996 5.47365 1.87535 5.55206C2.1814 5.71711 2.56227 5.92255 3.26343 5.92255C3.96458 5.92255 4.34543 5.71711 4.65144 5.55206C4.91827 5.40814 5.12898 5.2945 5.59226 5.2945C6.05557 5.2945 6.26631 5.40818 6.53313 5.55206C6.83918 5.71711 7.22006 5.92255 7.92121 5.92255C8.62236 5.92255 9.00327 5.71714 9.30932 5.55206C9.57615 5.40818 9.78692 5.2945 10.2503 5.2945C10.7136 5.2945 10.9244 5.40818 11.1912 5.55206C11.4973 5.71714 11.8782 5.92255 12.5794 5.92255C13.2806 5.92255 13.6615 5.71714 13.9675 5.55206C14.1585 5.44909 14.3212 5.36189 14.5678 5.32044L13.2593 12.517Z" fill="#161616"/>
</svg>